<?xml version="1.0" encoding="utf-8"?>
<svg id="master-artboard" viewBox="0 0 400 250" version="1.1" xmlns="http://www.w3.org/2000/svg" x="0px" y="0px" style="enable-background:new 0 0 1400 980;" width="400px" height="250px"><rect id="ee-background" x="0" y="0" width="400" height="250" style="fill: white; fill-opacity: 0; pointer-events: none;"/><defs><style id="ee-google-fonts">@import url(https://fonts.googleapis.com/css?family=Fjalla+One:400|Roboto:100,100italic,300,300italic,400,400italic,500,500italic,700,700italic,900,900italic);</style><style id="style-1">@import url(https://fonts.googleapis.com/css?family=Montserrat:400,700);</style><style id="style-2">@import url(https://fonts.googleapis.com/css?family=Fjalla+One:400|Montserrat:400,700|Roboto:100,100italic,300,300italic,400,400italic,500,500italic,700,700italic,900,900italic);</style></defs>
<g transform="matrix(6.315639495849609, 0, 0, 6.315639495849609, -3557.614990234375, -2540.736083984375)"><g>
	<path fill="#231F20" d="M586.1,407.1v19.1h-1.8v-15.6l-6.7,12.2h-1.3l-6.7-12.3v15.6h-1.8v-19h1.9l7.2,13.2l7.2-13.2H586.1&#10;&#9;&#9;L586.1,407.1z M605.6,426.5l-3.4-3.4c-1.2,1.8-2.8,3.1-5.6,3.1c-3.5,0-6-2.3-6-5.1c0-2.4,1.6-3.8,4.5-5.4c-1.6-1.6-2.6-2.9-2.6-4.5&#10;&#9;&#9;c0-2.3,2-4.1,4.5-4.1c2.6,0,4.5,1.8,4.5,4.1c0,2.2-1.8,3.7-3.7,4.8l4.1,4.3l2.5-3.8l1.5,0.9l-2.7,4.2l3.8,3.8L605.6,426.5z&#10;&#9;&#9; M596.2,416.9c-2.7,1.4-3.8,2.5-3.8,4.1c0,1.9,1.8,3.6,4.2,3.6c2.1,0,3.2-0.9,4.4-2.7L596.2,416.9z M594.3,411.2&#10;&#9;&#9;c0,1.1,0.7,2,2.4,3.7c1.9-1.1,3-2.2,3-3.7c0-1.5-1-2.6-2.7-2.6C595.4,408.6,594.3,409.8,594.3,411.2z M622.6,411.1l-1.6,0.6&#10;&#9;&#9;c-0.6-2-2.6-3.3-5-3.3c-2.7,0-4.6,1.3-4.6,3.6c0,4.8,11.4,2.3,11.4,9c0,3.2-2.7,5.4-6.8,5.4c-3.8,0-6-1.7-7.6-4.4l1.6-0.9&#10;&#9;&#9;c1,2.1,2.9,3.7,5.9,3.7c3.4,0,5-1.5,5-3.8c0-4.8-11.4-2.5-11.4-9c0-3.8,3.7-5.1,6.4-5.1C618.8,406.8,621.6,408.2,622.6,411.1z"/>
</g></g><g transform="matrix(3.1688015460968018, 0, 0, 3.1688015460968018, -1692.8907470703125, -1725.651123046875)"><g transform="matrix(1.6195266246795652, 0, 0, 1.6195266246795652, -365.6692781632937, -101.91213778108136)">
	<path fill="#231F20" d="M571,442.6h3.6v0.9H570v-7.6h1V442.6z"/>
	<path fill="#231F20" d="M576,439.7c0-2.2,1.5-3.8,3.7-3.8c2.2,0,3.7,1.7,3.7,3.8s-1.4,3.9-3.7,3.9S576,441.9,576,439.7z&#10;&#9;&#9; M582.5,439.7c0-1.6-1-2.9-2.7-2.9c-1.8,0-2.7,1.3-2.7,2.9c0,1.7,1,3,2.7,3C581.5,442.7,582.5,441.5,582.5,439.7z"/>
	<path fill="#231F20" d="M592.6,443.5h-1.1l-4.4-5.9v5.9h-1v-7.6h1l4.5,6.1v-6.1h1V443.5L592.6,443.5z"/>
	<path fill="#231F20" d="M595.6,443.5v-7.6h2.6c2.1,0,3.7,1.5,3.7,3.8c0,2.4-1.5,3.8-3.7,3.8L595.6,443.5L595.6,443.5z M596.6,436.9&#10;&#9;&#9;v5.7h1.7c1.7,0,2.6-0.9,2.6-2.8c0-1.8-1.1-2.8-2.6-2.8L596.6,436.9L596.6,436.9z"/>
	
	<path fill="#231F20" d="M620.6,443.5h-1.1l-4.4-5.9v5.9h-1v-7.6h1l4.5,6.1v-6.1h1V443.5z"/>
</g></g><path fill="#231F20" d="M576,439.7c0-2.2,1.5-3.8,3.7-3.8c2.2,0,3.7,1.7,3.7,3.8s-1.4,3.9-3.7,3.9S576,441.9,576,439.7z&#10;&#9;&#9; M582.5,439.7c0-1.6-1-2.9-2.7-2.9c-1.8,0-2.7,1.3-2.7,2.9c0,1.7,1,3,2.7,3C581.5,442.7,582.5,441.5,582.5,439.7z" transform="matrix(5.131954193115234, 0, 0, 5.131954193115234, -2707.6572265624995, -2048.828369140625)"/></svg>